<?xml version="1.0" encoding="UTF-8"?>
<svg id="Logo" xmlns="http://www.w3.org/2000/svg" viewBox="0 0 873 277">
  <defs>
    <style>
      .cls-1 {
        fill: #5fb55d;
      }

      .cls-2 {
        fill: #777683;
      }
    </style>
  </defs>
  <path class="cls-1" d="M203.06,98.46c-.44,1.23-.93,2.44-1.49,3.62-.46-1.16-.95-2.3-1.49-3.39-1.79-3.74-4.23-7.14-7.22-10.02-1.34-1.27-2.81-2.4-4.38-3.37-.95-.72-1.94-1.4-2.98-2.07,2.74-.77,5.56-1.18,8.4-1.23,1.88-.04,3.75.25,5.52.88,1.27.45,2.4,1.22,3.28,2.24.59.72,1.04,1.55,1.31,2.44.34,1.1.5,2.25.48,3.41,0,2.1-.46,4.67-1.45,7.5M192.45,152.69c-4.07,13.43-10.64,24.82-17.96,32.66-3.66,3.92-7.49,6.95-11.23,8.95-3.74,2.01-7.34,2.98-10.65,2.98-1.58,0-3.15-.22-4.65-.68-2.48-.77-4.75-2.12-6.62-3.93-2.99-2.82-5.53-7.01-7.28-12.33-1.76-5.3-2.73-11.69-2.72-18.69.01-3.66.26-7.31.75-10.93.06,0,.13,0,.19,0,2.65,0,5.33-.1,8.05-.3,16.67-1.26,31.57-6.14,42.61-13.38,1.49-.98,2.91-2.01,4.25-3.07l.04.05c3.27-2.72,6.37-5.65,9.27-8.76,0,.38.02.76.02,1.14,0,8.16-1.3,17.15-4.08,26.29M135.2,81.76c2.49-.18,4.95-.28,7.36-.27,6.69-.03,13.35.71,19.87,2.2-3.15,2-6.19,4.17-9.1,6.51-.44.35-.89.7-1.32,1.07-.06.05-.13.1-.19.16h0c-4.24,3.67-8.03,7.83-11.27,12.41-5.77,8.04-10.63,17.84-13.97,28.84-.87,2.84-1.59,5.67-2.2,8.48-10.79-.92-20.36-3.69-27.52-7.64-4.44-2.44-7.93-5.31-10.31-8.36-2.38-3.05-3.67-6.22-3.93-9.58h0c-.03-.39-.04-.78-.04-1.16,0-3.53,1.18-7.07,3.6-10.63,3.61-5.32,10.08-10.49,18.59-14.44,8.5-3.96,18.98-6.72,30.43-7.57M175.25,90.77c2.82-.01,5.6.74,8.03,2.17,1.86,1.41,3.54,3.05,5,4.88,2.38,3.06,3.67,6.22,3.93,9.57.03.4.04.78.04,1.17,0,3.53-1.18,7.07-3.6,10.63-3.61,5.33-10.08,10.5-18.59,14.44-8.5,3.96-18.98,6.72-30.43,7.58-1.98.15-3.93.22-5.86.25.48-2.02,1.01-4.06,1.64-6.1,4.07-13.43,10.63-24.82,17.96-32.66,1.37-1.47,2.82-2.86,4.35-4.17h.01c.63-.53,1.27-1.04,1.91-1.55,1.57-1.21,3.22-2.29,4.96-3.23,3.74-2.01,7.34-2.98,10.65-2.98M212.83,84.73c-.64-2.02-1.66-3.89-3.01-5.53-1.89-2.25-4.34-3.96-7.1-4.97-2.82-1.02-5.8-1.52-8.8-1.48-6.15.01-12.91,1.72-19.93,4.77-.03-.01-.07-.03-.1-.04-9.11-3.37-19.82-5.23-31.32-5.23-2.65,0-5.33.1-8.05.3-16.67,1.25-31.57,6.14-42.61,13.38-5.52,3.63-10.09,7.86-13.36,12.65-3.26,4.77-5.2,10.18-5.2,15.83,0,.61.02,1.23.07,1.85.4,5.37,2.54,10.34,5.87,14.58,5.01,6.37,12.57,11.25,21.67,14.64,6.56,2.43,13.95,4.06,21.87,4.79-.48,3.77-.72,7.57-.73,11.38,0,10.46,1.88,19.99,5.68,27.71,1.79,3.75,4.23,7.14,7.22,10.03,2.91,2.79,6.43,4.86,10.28,6.05,2.38.72,4.86,1.09,7.34,1.08,5.13,0,10.21-1.5,15.02-4.08,7.22-3.88,13.9-10.18,19.68-18.22,5.78-8.04,10.63-17.85,13.98-28.84,3.03-9.99,4.48-19.84,4.48-28.98,0-3.89-.28-7.77-.85-11.62.52-.77,1.03-1.54,1.51-2.3,2.18-3.45,3.98-7.13,5.36-10.97,1.25-3.6,1.96-7.13,1.96-10.54.02-2.11-.29-4.21-.92-6.23"/>
  <path class="cls-2" d="M249.98,141.96h9.49l25.76-27.73h15.03l-30.94,32.7,31.38,36.64h-15.11l-26.2-30.8h-9.42v30.8h-8.15c-2.07,0-3.74-1.68-3.74-3.75v-86.07h11.9v48.22Z"/>
  <path class="cls-2" d="M308.8,148.9c0,13.79,9.63,24.96,23.86,24.96s23.79-10.73,23.79-24.96-9.78-24.89-23.79-24.89-23.86,11.1-23.86,24.89M367.69,183.56h-8.23c-2.07,0-3.74-1.68-3.74-3.74v-5.53c-5.48,6.49-13.57,10.73-24.45,10.73-19.48,0-34.67-15.18-34.67-36.12s15.18-36.12,34.67-36.12c10.87,0,18.97,4.23,24.45,10.8v-9.34h11.97v69.33Z"/>
  <path class="cls-1" d="M717.99,148.9c0,13.79,9.63,24.96,23.86,24.96s23.79-10.73,23.79-24.96-9.78-24.89-23.79-24.89-23.86,11.1-23.86,24.89M776.88,183.56h-8.23c-2.07,0-3.74-1.68-3.74-3.74v-5.53c-5.48,6.49-13.57,10.73-24.45,10.73-19.48,0-34.67-15.18-34.67-36.12s15.18-36.12,34.67-36.12c10.87,0,18.97,4.23,24.45,10.8v-9.34h11.97v69.33Z"/>
  <path class="cls-2" d="M441.24,140.5v43.06h-8.23c-2.07,0-3.75-1.68-3.75-3.74v-35.45c0-12.77-7-20.29-19.05-20.29-11.17,0-20.51,7.66-20.51,20.58v38.9h-8.15c-2.07,0-3.74-1.68-3.74-3.74v-65.59h11.82v9.05c5.69-7.81,14.67-10.51,22.69-10.51,17.08,0,28.9,11.1,28.9,27.73"/>
  <path class="cls-2" d="M462.63,148.9c0,13.79,9.63,24.96,23.86,24.96s23.79-10.73,23.79-24.96-9.78-24.88-23.79-24.88-23.86,11.09-23.86,24.88M509.56,123.57v-29.83h11.97v89.81h-8.22c-2.07,0-3.74-1.67-3.74-3.74v-5.53c-5.48,6.49-13.57,10.73-24.45,10.73-19.48,0-34.66-15.18-34.66-36.13s15.18-36.12,34.66-36.12c10.88,0,18.97,4.23,24.45,10.8"/>
  <path class="cls-2" d="M542.92,148.9c0,14.52,10.51,24.96,24.45,24.96s24.45-10.44,24.45-24.96-10.58-24.89-24.45-24.89-24.45,10.36-24.45,24.89M604.08,148.9c0,20.58-15.69,36.13-36.71,36.13s-36.64-15.54-36.64-36.13,15.62-36.12,36.64-36.12,36.71,15.54,36.71,36.12"/>
  <path class="cls-2" d="M676.56,154.52c0,20.94-15.04,30.51-31.6,30.51s-31.67-9.56-31.67-30.51v-40.28h11.97v39.19c0,14.16,8.39,20.44,19.7,20.44s19.63-6.28,19.63-20.44v-39.19h11.97v40.28Z"/>
  <path class="cls-1" d="M799.86,114.24v69.32h-8.23c-2.07,0-3.74-1.67-3.74-3.74v-65.58h11.97Z"/>
  <rect class="cls-1" x="787.89" y="93.74" width="11.97" height="11.97"/>
  <rect class="cls-1" x="685.32" y="171.59" width="11.97" height="11.97"/>
</svg>